<svg width="100" height="100" viewBox="0 0 100 100" fill="none" xmlns="http://www.w3.org/2000/svg">
<rect width="100" height="100" fill="#FF3366"/>
<path d="M33.572 69.324C29.828 69.324 26.444 68.496 23.42 66.84C20.432 65.184 18.074 62.898 16.346 59.982C14.654 57.03 13.808 53.736 13.808 50.1C13.808 46.464 14.654 43.188 16.346 40.272C18.074 37.32 20.45 35.016 23.474 33.36C26.498 31.704 29.882 30.876 33.626 30.876C36.434 30.876 39.026 31.344 41.402 32.28C43.778 33.216 45.794 34.584 47.45 36.384L44.912 38.922C41.96 35.934 38.234 34.44 33.734 34.44C30.746 34.44 28.028 35.124 25.58 36.492C23.132 37.86 21.206 39.732 19.802 42.108C18.434 44.484 17.75 47.148 17.75 50.1C17.75 53.052 18.434 55.716 19.802 58.092C21.206 60.468 23.132 62.34 25.58 63.708C28.028 65.076 30.746 65.76 33.734 65.76C38.27 65.76 41.996 64.248 44.912 61.224L47.45 63.762C45.794 65.562 43.76 66.948 41.348 67.92C38.972 68.856 36.38 69.324 33.572 69.324ZM78.7253 58.902H57.6653L53.1293 69H48.9713L66.2513 31.2H70.1933L87.4733 69H83.2613L78.7253 58.902ZM77.2673 55.662L68.1953 35.358L59.1233 55.662H77.2673Z" fill="white"/>
</svg>
